<?xml version="1.0" encoding="utf-8"?>
<!-- Generator: Adobe Illustrator 25.1.0, SVG Export Plug-In . SVG Version: 6.00 Build 0)  -->
<svg version="1.1" id="Artsy_1_" xmlns="http://www.w3.org/2000/svg" xmlns:xlink="http://www.w3.org/1999/xlink" x="0px" y="0px"
	 viewBox="0 0 313.2 308.5" style="enable-background:new 0 0 313.2 308.5;" xml:space="preserve">
<style type="text/css">
	.st0{fill:#F7EBD1;}
	.st1{opacity:0.2;fill:#3D006F;}
	.st2{fill:#FFFFFF;}
	.st3{fill:none;stroke:#3D006F;stroke-width:9;stroke-miterlimit:10;}
	.st4{fill:#FF6C6C;}
	.st5{fill:#3D006F;}
	.st6{opacity:0.6;}
</style>
<g id="Head_1_">
	<g>
		<path class="st0" d="M295.3,6.6c-13.3-8.8-59.4,11.9-77.8,26.9c-55.6-22.1-102.2-5.9-116.3,0.9C52.7,12.2,17-0.6,7.7,25.7
			c-9.3,26.3,3.9,85.6,14.1,107.1c-21.9,80.8-13.3,122.5,12.7,146c26,23.6,69.4,23.9,103.8,25.1l56.1-0.6
			c73.2,0.4,108.4-31.8,113.1-64.6c4.7-32.9-4.5-84.9-17.7-121.5C313.5,64.7,308.6,15.5,295.3,6.6z"/>
		<path class="st1" d="M298.4,224.1c-11.1,21.4-49.3,58.3-138.8,62.6C81,290.4,41.6,262.8,18.7,226.3c6.4,33.9,27.3,63.1,81,74.3
			c-1.7,0.4-3.6,0.6-5.5,0.7c15,1.8,30.2,2.1,44,2.6l56.1-0.6c15.7,0.1,29.7-1.3,41.9-3.9l-1.4-0.3
			C271,287.4,295.9,268.4,298.4,224.1z"/>
		<path class="st2" d="M12.3,239.5l4.3-1.6c-1.5-8-0.5-53.5,9.8-86.1s21.3-65.5,52.2-89.1s59.6-24.8,73.2-25.6
			c13.5-0.8,56.4-2.8,87.2,25.8c30.8,28.7,60.4,93.5,65.1,162.3c3.7-11.2-2.6-66-9.9-89.4l-9.3-18.8c0,0-3.2-8.1-6.9-15.7
			c-0.6-4.2-2.3-10.5-2.3-10.5s-24.5-33-40-41.6c-3-2-7-4.5-7-4.5c11.5-9.3,36.3-26,51.6-28.7c15.3-2.7,18.4,6.4,21.6,25.6
			c2.6-6.3,0.9-30.1-8.1-33.9s-39.6-2-76.3,27.2c-21.7-8.3-74.2-19.3-116.3-0.4C76.3,23.1,43.6,8.3,28.6,12.8S5.9,20.1,9.1,55.1
			c2.2-17.5,3.8-34.3,20.6-32.4c16.7,1.9,44.2,14.3,59.1,24.1c-4.7,2.8-10.1,5.1-14.4,8.4c-5.7,1.9-8.9,1.8-8.9,1.8L36.9,95.6
			l-3.8,18.1c0,0-4.9,12.2-6.6,18.7l-5.5,3.1C21.1,135.4,5.4,211.4,12.3,239.5z"/>
		<path class="st2" d="M200.2,39.8c0.1,6.2-16.9,11.5-38,11.7c-21,0.2-38.2-4.6-38.2-10.8c-0.1-6.2,16.9-11.5,38-11.7
			C183,28.7,200.1,33.6,200.2,39.8z"/>
		<path class="st3" d="M295.3,6.6c-13.3-8.8-59.4,11.9-77.8,26.9c-55.6-22.1-102.2-5.9-116.3,0.9C52.7,12.2,17-0.6,7.7,25.7
			c-9.3,26.3,3.9,85.6,14.1,107.1c-21.9,80.8-13.3,122.5,12.7,146c26,23.6,69.4,23.9,103.8,25.1l56.1-0.6
			c73.2,0.4,108.4-31.8,113.1-64.6c4.7-32.9-4.5-84.9-17.7-121.5C313.5,64.7,308.6,15.5,295.3,6.6z"/>
	</g>
	<g>
		<path class="st2" d="M191.3,175.9c-33.8-6.8-67.3,1.7-67.3,1.7s-9.3-2.1-21.5,8.3s-6.3,41.3,0.3,53.8
			c6.6,12.5,25.8,45.3,53.7,45.6c27.9,0.4,48.4-14.9,62.1-42.8C232.2,214.6,225.1,182.8,191.3,175.9z"/>
	</g>
	<path class="st1" d="M123,202.1c0,0,2.4-7.4,4.2-8c-0.5,4.2,2.9,10.7,10.7,11.6c7.8,0.9,17.2-1.3,18.8-10.7l7.7,0.6
		c1.1,4.9,4.9,11.1,14.5,12.6c9.5,1.5,16.2-3.2,14.7-8.9c2.5,5.7,4.3,11.5-0.2,14.2c-4.5,2.7-26.4,3.7-33.2-3.5
		C149.5,213.3,128.9,217.5,123,202.1z"/>
	<g>
		<path class="st4" d="M41.5,37.1c-22.2-12-20.6-2-21.1,10.6c-0.5,12.7,5.4,43.5,12.3,57.3c6.7-17.7,23.1-40,36.5-50.2
			C69.2,54.8,63.7,49.1,41.5,37.1z"/>
		<path class="st1" d="M21.3,62l5.1,9.3C24.9,62,24,47.4,32.4,49.2c8.5,1.8,22.6,16.3,22.6,16.3L67,55.8c0,0-22.8-19.4-31.6-21.7
			c-8.8-2.3-15.3-4.6-15.3,10.5C20.1,59.6,21.3,62,21.3,62z"/>
		<path class="st5" d="M43.1,34c-10.6-5.7-16.9-7.1-21.1-4.7c-4.7,2.7-4.9,8.9-5.1,15.4c0,0.9-0.1,1.9-0.1,2.8
			c-0.5,13.3,5.7,44.9,12.7,59l3.6,7.1l2.8-7.4c6.4-16.8,22.2-38.6,35.4-48.7l3.1-2.4l-2.7-2.8C71.4,52.1,65.6,46.2,43.1,34z
			 M32.8,96.1c-5.2-14.8-9.3-37.9-8.9-48.2c0-1,0.1-2,0.1-2.9c0.1-3.9,0.2-8.8,1.6-9.6c0.1-0.1,0.4-0.2,0.7-0.2
			c1.4-0.2,5,0.4,13.6,5c13.2,7.1,20.3,12,23.9,14.6C52.3,64.7,40.1,81.1,32.8,96.1z"/>
	</g>
	<g>
		<path class="st4" d="M271.4,27.4C258.6,34.1,241.2,49,241.2,49c11,8.1,29.1,28.1,37.1,44.9c5.2-8.7,12.5-23.7,13.6-50.7
			S284.3,20.8,271.4,27.4z"/>
		<path class="st1" d="M290.8,57.1l-4.9,7.9c1.2-6.7,1.6-21.9-3-26.1c-4.6-4.2-22,16-24,21.9L241.2,49c0,0,32.3-24.7,37.8-26
			c5.5-1.3,10.5-1.6,12.1,3.9C292.8,32.4,290.8,57.1,290.8,57.1z"/>
		<path class="st5" d="M289.7,20.2c-5.4-3.4-12.1,0.1-19.9,4.1c-13,6.7-30.2,21.4-30.9,22l-3.3,2.8l3.5,2.6
			c9.9,7.3,27.9,26.6,36.1,43.6l2.8,5.9l3.3-5.6c5.5-9.3,13-24.8,14.1-52.3C296,30.1,294.3,23.2,289.7,20.2z M288.5,43.1
			c-0.9,21.1-5.6,34.6-10.1,43.5c-8-13.7-21.3-29-31.7-37.7c5.6-4.6,17.2-13.7,26.3-18.4c5.1-2.7,11-5.7,12.9-4.4
			C286.9,26.7,289.1,29.6,288.5,43.1z"/>
	</g>
	<g>
		<path class="st5" d="M75.2,138.7c-0.1,0-0.2,0-0.3,0c-13.6,1.7-24.1,14-28,24.8c0,0,11.6-13,29.1-15.9c0.1,0,0.1,0,0.2,0
			c9.2-1,19,5.6,28.4,19.3c0,0-2.4-20.9-17.2-26.7C82.9,138.4,78.7,138.3,75.2,138.7z"/>
	</g>
	<g>
		<path class="st5" d="M235.6,139.3c-4.6,0.3-9.4,1.6-13.7,3.8c-16.5,8.5-10.8,24.1-10.8,24.1c1.8-8.2,13.1-18,25.1-19
			c20.4-1.6,31.7,17,31.7,17C259.6,141.4,244.1,138.7,235.6,139.3z"/>
	</g>
	<g>
		<path class="st5" d="M193.6,199.2c1.5,3.5,1,7.7-1.3,10.7c-2.6,3.3-6.9,4.7-12.1,3.9c-12.9-2.1-18-6.1-18.1-6.2l-1.5-1.3l-1.8,0.9
			c-0.1,0.1-14.3,6.9-24.1,2.9c-4.5-1.8-7.4-4.5-8.5-7.8c-0.9-2.7-0.6-5.6,0.9-8.2c0,0-9.2,2.7-6.6,10.2c1.2,3.5,4.2,8.3,11.9,11.4
			c10.2,4.1,22.9-0.5,27.3-2.4c2.7,1.6,8.7,4.7,19.4,6.4c2.2,0.3,4.3,0.4,6.2,0.2c4.8-0.5,9-2.6,11.6-6.3
			C201.6,207.3,193.6,199.2,193.6,199.2z"/>
	</g>
	<g>
		
			<rect x="153.6" y="200.2" transform="matrix(1.775981e-02 -0.9998 0.9998 1.775981e-02 -45.6243 359.843)" class="st5" width="13.4" height="6"/>
	</g>
	<g>
		<g>
			<path class="st5" d="M179.7,216.7c-14.2-2.3-19.5-6.8-19.5-6.8s-15.3,7.6-26.5,3c-2.5-1-4.5-2.3-6.1-3.7
				c7.5,7.7,12.2,25.6,13.4,33.6c5.2-7.2,14.3-4.7,17.6-0.7c3.6-4.5,10.4-4.1,14.3-0.2c0.8,0.8,1.4,1.9,1.9,3.2c0,0,0.1,0,0.1,0
				c0.1-7.5,8.8-23.6,15-29.5C187.2,216.8,183.8,217.3,179.7,216.7z"/>
			<path class="st5" d="M180.2,213.8c-12.9-2.1-18-6.1-18.1-6.2l-1.5-1.3l-1.8,0.9c-0.1,0.1-14.3,6.9-24.1,2.9
				c-2.1-0.8-3.9-1.9-5.3-3.1l-4.1,4.3c6.6,6.8,11.2,23.2,12.6,31.9l1.1,7.2l4.3-5.9c1.5-2.1,3.6-3.3,6-3.3c2.9-0.1,5.7,1.3,6.9,2.8
				l2.4,2.8l2.3-2.9c1.3-1.6,3-2.1,4.2-2.1c2-0.1,4.1,0.7,5.6,2.2c0.5,0.5,0.9,1.2,1.3,2.2l0.7,1.9l5.1,0l0-2.9
				c0.1-6.2,8-21.5,14.1-27.4l-3.3-4.9C186.2,214,183.4,214.3,180.2,213.8z M173.2,238.3c-2.4-1.7-5.4-2.6-8.3-2.4
				c-0.3,0-0.5,0-0.8,0.1c-2,0.2-3.9,1-5.5,2.1c-2.6-1.9-6-2.9-9.4-2.8c-2.3,0.1-4.4,0.7-6.3,1.8c-1.3-5.7-3.5-13.5-6.8-20.3
				c9.4,2.1,19.8-1.8,23.8-3.4c2.7,1.6,8.7,4.7,19.4,6.4c1.1,0.2,2.2,0.3,3.2,0.3C178.7,225.4,175.1,232.4,173.2,238.3z"/>
		</g>
	</g>
	<g>
		<path class="st4" d="M158.6,242.1c-3.4-4-12.4-6.5-17.6,0.7c-5.2,7.2-3.6,32,16.7,31.4c13.5-0.4,16-6.9,17.5-12.7
			c1.5-5.8,1.6-15.7-2.2-19.6C169.1,238,162.2,237.5,158.6,242.1z"/>
		<path class="st1" d="M143,253.3c0.9,10.3,5.9,15.6,14.6,15.9c8.6,0.3,14-6.4,12.5-14.9C166.5,260.9,150.9,266.7,143,253.3z"/>
		<path class="st5" d="M164.9,235.8c-2.4,0.1-4.5,0.9-6.3,2.2c-2.6-1.9-6-2.9-9.4-2.8c-4.2,0.2-8,2.2-10.6,5.8
			c-3.7,5.1-4.6,16.6,0.1,25.4c3.8,7.2,10.6,11.1,19.1,10.8c1.2,0,2.3-0.1,3.3-0.2c11.8-1.3,15.1-7.8,17-14.6
			c1.7-6.3,1.9-17.5-3-22.5C172.4,237.1,168.6,235.6,164.9,235.8z M172.3,260.8c-1.3,4.7-2.7,10.1-14.7,10.4
			c-6.3,0.2-10.9-2.4-13.7-7.6c-3.7-7-2.8-15.9-0.5-19.1c1.5-2.1,3.6-3.3,6-3.3c2.9-0.1,5.7,1.3,6.9,2.8l2.4,2.8l2.3-2.9
			c1.3-1.6,3-2.1,4.2-2.1c2-0.1,4.1,0.7,5.6,2.2C173.4,246.7,173.7,255.2,172.3,260.8z"/>
	</g>
	<g>
		<path class="st5" d="M161.5,242.9l-2.9-0.8c0,0-4.7,0-4.1,0.5c1.8,1.5,3.2,14.2,3.2,14.2s2.4-12.2,4.4-13.9l-3.5-0.8L161.5,242.9z
			"/>
	</g>
	<g>
		<path class="st2" d="M161.8,163.4c-20.4-0.3-32.6,11.2-43.9,19.3l84.4,4.8C194.5,179.7,182.1,163.7,161.8,163.4z"/>
		<path class="st5" d="M161.8,160.5c-24.5-0.9-44,22.3-44,22.3c11.8-8.4,24.9-16.5,43.9-16.3c17.8,0.2,31,11.4,40.5,21.1
			C202.2,187.5,192.4,161.5,161.8,160.5z"/>
	</g>
	<g>
		<path class="st5" d="M162.8,172.1c-17.2,0-24.6,6-19.4,14.5c5.2,8.5,12.5,10.2,17.1,11c5.2,0.9,15.9-5.4,19.2-9.9
			C183,183,179.9,172,162.8,172.1z"/>
	</g>
	<g class="st6">
		<path class="st2" d="M162.3,177c-9.7,0.2-14.2,1.4-11.7,2.9c2.5,1.5,6.5,1.7,9.1,1.8c2.9,0.1,9.2-1.2,11.4-2.1
			C173.2,178.8,172,176.8,162.3,177z"/>
	</g>
</g>
</svg>
